<svg width="34" height="34" viewBox="0 0 34 34" fill="none" xmlns="http://www.w3.org/2000/svg">
  <path fill-rule="evenodd" clip-rule="evenodd" d="M17 31.3438C24.9218 31.3438 31.3438 24.9218 31.3438 17C31.3438 9.07817 24.9218 2.65625 17 2.65625C9.07817 2.65625 2.65625 9.07817 2.65625 17C2.65625 24.9218 9.07817 31.3438 17 31.3438ZM17 34C26.3888 34 34 26.3888 34 17C34 7.61117 26.3888 0 17 0C7.61117 0 0 7.61117 0 17C0 26.3888 7.61117 34 17 34Z" fill="#00CFA6"/>
  <path fill-rule="evenodd" clip-rule="evenodd" d="M14.1629 33.7648C11.4086 33.3023 8.87907 32.1772 6.74353 30.5596V17.3039C6.74353 11.4721 11.3354 6.74438 16.9997 6.74438C22.664 6.74438 27.2559 11.4721 27.2559 17.3039C27.2559 23.1356 22.664 27.8634 16.9997 27.8634C16.7799 27.8634 16.5616 27.8562 16.3451 27.8422V20.1464C16.5553 20.1975 16.7744 20.2246 16.9997 20.2246C18.5665 20.2246 19.8365 18.9169 19.8365 17.3039C19.8365 15.6908 18.5665 14.3831 16.9997 14.3831C15.433 14.3831 14.1629 15.6908 14.1629 17.3039L14.163 17.3224V27.4542L14.1629 27.4542V33.7648Z" fill="#FF2400"/>
</svg>
